<svg xmlns="http://www.w3.org/2000/svg" width="19.801" height="13.417" viewBox="0 0 19.801 13.417"><g transform="translate(0 13.417) rotate(-90)"><path d="M6.214,19.533A.782.782,0,0,0,6.7,19.8a.857.857,0,0,0,.51-.284q2.98-2.976,5.959-5.958a.567.567,0,0,0,.08-.859.5.5,0,0,0-.359-.16.734.734,0,0,0-.5.239l-1.622,1.615-1.48,1.473c-.064.064-.131.127-.22.21l-.141.132L7.239,17.8V5.088c0-1.5,0-3-.006-4.5A.549.549,0,0,0,6.708,0a.56.56,0,0,0-.24.057c-.188.089-.332.192-.332.628q.008,5.377,0,10.753V17.8L4.452,16.207l-.14-.132c-.09-.084-.154-.145-.217-.208l-1.02-1.024Q2.029,13.791.98,12.742a.644.644,0,0,0-.447-.2.524.524,0,0,0-.369.158A.523.523,0,0,0,0,13.07a.651.651,0,0,0,.2.455Q3.206,16.532,6.214,19.533Z" fill="#fff"/></g></svg>