<svg xmlns="http://www.w3.org/2000/svg" xmlns:xlink="http://www.w3.org/1999/xlink" width="28.372" height="26.599" viewBox="0 0 28.372 26.599"><defs><clipPath id="a"><rect width="28.372" height="26.599" fill="#fff"/></clipPath></defs><g transform="translate(0 0)"><g transform="translate(0 0)"><g clip-path="url(#a)"><path d="M853.4,579.291a.551.551,0,1,0-.752-.2.551.551,0,0,0,.752.2Zm0,0" transform="translate(-845.722 -562.46)" fill="#fff"/></g><g clip-path="url(#a)"><path d="M760.285,384.037l2.774,4.807a2.2,2.2,0,1,0,3.818-2.2l-1.653-2.863,1.432-.827a.552.552,0,0,0,.2-.753l-.716-1.241,10.555-2.071a1.652,1.652,0,0,0,1.34-2.477l-1.832-3.172,1.17-1.772a.55.55,0,0,0,.017-.579l-1.1-1.909a.552.552,0,0,0-.51-.274l-2.12.127-2.033-3.522a1.638,1.638,0,0,0-1.411-.827h-.021a1.64,1.64,0,0,0-1.392.762l-7.2,9.17-4.68,2.7a3.857,3.857,0,0,0,3.361,6.922Zm5.639,3.154a1.1,1.1,0,0,1-1.91,1.1l-2.755-4.773,1.909-1.1c3.188,5.524,2.7,4.685,2.755,4.773Zm-1.25-4.369-.551-.954.954-.551.551.954Zm10.833-13,.761,1.319-.679,1.029-1.312-2.274Zm-5.782-3.975a.55.55,0,0,1,.947.011l6.409,11.1a.551.551,0,0,1-.464.826,2.034,2.034,0,0,0-.3.052l-6.78-11.743c.143-.183.161-.2.189-.247Zm-.921,1.181,6.37,11.033-9.614,1.886-2.923-5.063Zm-12.336,14.8a2.753,2.753,0,0,1,1.008-3.764l4.295-2.48,2.755,4.772-4.295,2.48a2.758,2.758,0,0,1-3.764-1.008Zm0,0" transform="translate(-754.867 -363.403)" fill="#fff"/></g><g clip-path="url(#a)"><path d="M792.625,594.534a.552.552,0,0,0-.753-.2l-.955.551a.552.552,0,0,1-.753-.2.551.551,0,0,0-.955.551,1.655,1.655,0,0,0,2.258.6l.955-.551a.55.55,0,0,0,.2-.752Zm0,0" transform="translate(-786.656 -577.354)" fill="#fff"/></g><g clip-path="url(#a)"><path d="M1107.372,380.656l-3.071,1.709a.551.551,0,0,0,.536.963l3.07-1.708a.551.551,0,0,0-.535-.964Zm0,0" transform="translate(-1079.849 -378.4)" fill="#fff"/></g><g clip-path="url(#a)"><path d="M1109.87,456.486l-2.129-.57a.551.551,0,1,0-.285,1.065l2.129.57a.551.551,0,0,0,.285-1.065Zm0,0" transform="translate(-1082.669 -448.523)" fill="#fff"/></g><g clip-path="url(#a)"><path d="M1062.386,347.005l-.571,2.129a.551.551,0,1,0,1.065.285l.571-2.129a.551.551,0,0,0-1.065-.285Zm0,0" transform="translate(-1040.535 -346.752)" fill="#fff"/></g></g></g></svg>